<svg width="11" height="12" viewBox="0 0 11 12" fill="none" xmlns="http://www.w3.org/2000/svg">
<path fill-rule="evenodd" clip-rule="evenodd" d="M11 2C11 3.10457 10.1046 4 9 4C8.40581 4 7.87214 3.74088 7.50582 3.32948L3.97507 5.68332C3.99148 5.78646 4 5.89224 4 6C4 6.14007 3.9856 6.27677 3.9582 6.40871L7.58611 8.58546C7.94802 8.22372 8.44788 8 9 8C10.1046 8 11 8.89543 11 10C11 11.1046 10.1046 12 9 12C7.89543 12 7 11.1046 7 10C7 9.80799 7.02706 9.62229 7.07757 9.44652L3.51315 7.30787C3.14641 7.73179 2.60453 8 2 8C0.895431 8 0 7.10457 0 6C0 4.89543 0.895431 4 2 4C2.63378 4 3.19871 4.2948 3.56514 4.75475L7.0471 2.43345C7.01626 2.29388 7 2.14884 7 2C7 0.895431 7.89543 0 9 0C10.1046 0 11 0.895431 11 2Z" fill="#B7BDC6"/>
</svg>
