<svg width="13" height="13" viewBox="0 0 13 13" fill="none" xmlns="http://www.w3.org/2000/svg">
<path d="M6.20019 1.03276C6.37586 0.635965 6.93894 0.635966 7.1146 1.03276L8.46555 4.0844C8.53817 4.24844 8.6931 4.361 8.87154 4.37937L12.1913 4.7212C12.623 4.76564 12.797 5.30117 12.4739 5.59085L9.98904 7.81869C9.85548 7.93844 9.7963 8.12057 9.83397 8.29596L10.5347 11.5589C10.6259 11.9831 10.1703 12.3141 9.79497 12.0963L6.90831 10.4216C6.75315 10.3316 6.56165 10.3316 6.40648 10.4216L3.51982 12.0963C3.14448 12.3141 2.68894 11.9831 2.78006 11.5589L3.48082 8.29596C3.51849 8.12057 3.45931 7.93844 3.32575 7.81869L0.840932 5.59085C0.517838 5.30117 0.69184 4.76564 1.1235 4.7212L4.44325 4.37937C4.6217 4.361 4.77662 4.24844 4.84924 4.0844L6.20019 1.03276Z" fill="#E7BA41"/>
</svg>
