<svg width="14" height="14" viewBox="0 0 14 14" fill="none" xmlns="http://www.w3.org/2000/svg">
<path d="M6.37791 3.13663C6.51454 2.82801 6.95249 2.82801 7.08912 3.13663L8.13986 5.51013C8.19634 5.63771 8.31684 5.72526 8.45563 5.73955L11.0377 6.00542C11.3734 6.03999 11.5087 6.4565 11.2574 6.68181L9.3248 8.41458C9.22091 8.50772 9.17489 8.64937 9.20418 8.78579L9.74922 11.3236C9.82009 11.6536 9.46578 11.911 9.17385 11.7416L6.92867 10.439C6.80799 10.369 6.65904 10.369 6.53836 10.439L4.29318 11.7416C4.00125 11.911 3.64694 11.6536 3.71781 11.3236L4.26285 8.78579C4.29215 8.64937 4.24612 8.50772 4.14224 8.41458L2.2096 6.68181C1.95831 6.4565 2.09364 6.03999 2.42937 6.00542L5.0114 5.73955C5.15019 5.72526 5.27069 5.63771 5.32717 5.51013L6.37791 3.13663Z" fill="#E7BA41"/>
</svg>
